<?xml version="1.0" encoding="UTF-8" standalone="no"?>
<!-- Generator: Adobe Illustrator 17.0.0, SVG Export Plug-In . SVG Version: 6.00 Build 0)  -->

<svg
   xmlns:dc="http://purl.org/dc/elements/1.1/"
   xmlns:cc="http://creativecommons.org/ns#"
   xmlns:rdf="http://www.w3.org/1999/02/22-rdf-syntax-ns#"
   xmlns:svg="http://www.w3.org/2000/svg"
   xmlns="http://www.w3.org/2000/svg"
   xmlns:sodipodi="http://sodipodi.sourceforge.net/DTD/sodipodi-0.dtd"
   xmlns:inkscape="http://www.inkscape.org/namespaces/inkscape"
   version="1.1"
   id="Layer_1"
   x="0px"
   y="0px"
   width="561.32898"
   height="337.03201"
   viewBox="0 0 561.32898 337.03201"
   enable-background="new 0 0 792 612"
   xml:space="preserve"
   inkscape:version="0.48.4 r9939"
   sodipodi:docname="logo.svg"><metadata
     id="metadata23"><rdf:RDF><cc:Work
         rdf:about=""><dc:format>image/svg+xml</dc:format><dc:type
           rdf:resource="http://purl.org/dc/dcmitype/StillImage" /></cc:Work></rdf:RDF></metadata><defs
     id="defs21" /><sodipodi:namedview
     pagecolor="#ffffff"
     bordercolor="#666666"
     borderopacity="1"
     objecttolerance="10"
     gridtolerance="10"
     guidetolerance="10"
     inkscape:pageopacity="0"
     inkscape:pageshadow="2"
     inkscape:window-width="1918"
     inkscape:window-height="1057"
     id="namedview19"
     showgrid="false"
     showguides="false"
     inkscape:zoom="1.5424837"
     inkscape:cx="308.23089"
     inkscape:cy="229.74198"
     inkscape:window-x="0"
     inkscape:window-y="21"
     inkscape:window-maximized="0"
     inkscape:current-layer="Layer_1"
     fit-margin-top="0"
     fit-margin-left="0"
     fit-margin-right="0"
     fit-margin-bottom="0" /><g
     id="g3"
     transform="translate(-115.336,-137.484)"><g
       id="g5"><path
         d="m 115.336,266.261 h 57.03 l 32.68,86.505 11.534,33.962 h 1.281 l 11.534,-33.962 31.399,-86.505 h 57.03 V 474.515 H 266.561 V 413 c 0,-21.146 4.486,-53.505 7.049,-74.332 h -1.282 l -17.301,48.701 -28.835,70.166 h -20.505 l -28.835,-70.166 -16.66,-48.701 h -1.282 c 2.563,20.826 7.049,53.185 7.049,74.332 v 61.515 H 115.337 V 266.261 z"
         id="path7"
         inkscape:connector-curvature="0"
         style="fill:#7cc576" /><path
         d="M 384.466,402.748 321.669,266.261 h 58.953 L 396,309.834 c 5.127,15.699 10.253,30.118 15.699,46.457 h 1.281 c 5.447,-16.339 10.894,-30.758 16.341,-46.457 l 15.378,-43.573 h 57.671 l -62.797,136.487 v 71.767 h -55.107 v -71.767 z"
         id="path9"
         inkscape:connector-curvature="0"
         style="fill:#7cc576" /><path
         d="m 512.623,266.261 h 80.74 c 44.855,0 83.302,16.659 83.302,69.205 0,50.942 -39.729,73.049 -83.302,73.049 H 567.73 v 66.001 H 512.623 V 266.261 z m 78.176,98.68 c 21.786,0 32.039,-10.893 32.039,-29.475 0,-18.583 -11.534,-25.632 -32.039,-25.632 H 567.73 v 55.107 h 23.069 z"
         id="path11"
         inkscape:connector-curvature="0"
         style="fill:#7cc576" /></g><g
       id="g13"><g
         id="g15"><path
           d="m 260.587,155.196 c -23.616,-23.616 -61.875,-23.616 -85.497,0 -23.616,23.604 -23.616,61.899 0,85.497 0,0 42.721,41.899 42.721,90.267 0,-48.368 42.77,-90.267 42.77,-90.267 23.628,-23.597 23.628,-61.893 0.006,-85.497 z m -42.775,72.793 c -16.671,0 -30.184,-13.513 -30.184,-30.214 0,-16.701 13.513,-30.214 30.184,-30.214 16.731,0 30.244,13.513 30.244,30.214 0,16.701 -13.513,30.214 -30.244,30.214 z"
           id="path17"
           inkscape:connector-curvature="0"
           style="fill:#00a651" /></g></g></g></svg>